<svg height="63.788" viewBox="0 0 204.117 63.788" width="204.117" xmlns="http://www.w3.org/2000/svg"><g fill-rule="evenodd"><path d="m1745.415 1059.317c.182.277.047.5-.3.5h-6.69a1.275 1.275 0 0 1 -.961-.5l-4.354-6.655c-.92-1.4-1.61 0-1.61 0v-.035l-4.368 6.682a1.271 1.271 0 0 1 -.959.5h-6.682c-.348 0-.483-.225-.3-.5l8.624-13.193h-.041a1.085 1.085 0 0 0 .334-1.109l-.32-.488-.014-.012-7.513-11.474c-.183-.279-.047-.5.3-.5h6.69a1.273 1.273 0 0 1 .961.5l3.278 5.016v-.08c.92 1.369 1.611 0 1.611 0v.053l3.26-4.987a1.274 1.274 0 0 1 .959-.5h6.68c.349 0 .484.225.3.5l-7.942 12.148a.914.914 0 0 0 0 .311zm-30.14.5h-5.339a.5.5 0 0 1 -.5-.5v-26.286a.5.5 0 0 1 .5-.5h5.339a.5.5 0 0 1 .5.5v26.286a.5.5 0 0 1 -.5.504zm0-31.017h-5.339a.5.5 0 0 1 -.5-.5v-5.237a.5.5 0 0 1 .5-.5h5.339a.5.5 0 0 1 .5.5v5.237a.5.5 0 0 1 -.5.5zm-9.874 16.314v14.2a.5.5 0 0 1 -.5.5h-5.339a.5.5 0 0 1 -.5-.5v-15.492c0-.5.164-3.393-1.008-4.338a7.554 7.554 0 0 0 -4.434-1.025h-.243l-.16.01v-.01h-3.83c-1.309 0-2.115.807-2.115 2.922v17.926a.5.5 0 0 1 -.5.5h-5.338a.5.5 0 0 1 -.5-.5v-22.055a4.166 4.166 0 0 1 4.735-4.733h7.958c11.982.133 11.788 6.137 11.788 7.964zm-39.393 14.678v.025h-1.308v-.025c-11.064-.41-10.882-6.147-10.882-7.931v-18.834a.5.5 0 0 1 .5-.5h5.339a.5.5 0 0 1 .5.5v15.51c0 .5-.367 3.362.908 4.129a8.055 8.055 0 0 0 3.627.82v-.027s.453.035 1.11.021l.205-.01a7.822 7.822 0 0 0 3.526-.82c1.272-.768 1.008-3.631 1.008-4.135v-15.492a.5.5 0 0 1 .5-.5h5.339a.5.5 0 0 1 .5.5v18.822c0 1.784.181 7.528-10.886 7.948zm-15.818-.277h-5.649c-6.147 0-5.532-4.129-5.532-5.438v-14.377c-.035-.3-.2-.625-1.008-.625h-2.217a.5.5 0 0 1 -.5-.5v-5.327a.5.5 0 0 1 .5-.5h2.216c.793 0 .973-.322 1.008-.615v-6.433a.5.5 0 0 1 .5-.5h5.339a.5.5 0 0 1 .5.5v6.723c.121.184.377.328.906.328h3.83a.5.5 0 0 1 .5.5v5.327a.5.5 0 0 1 -.5.5h-3.83c-.528 0-.785.143-.906.328v13.146c.035.3.2.625 1.008.625h3.827a.5.5 0 0 1 .5.5v5.327a.5.5 0 0 1 -.506.506z" fill="#00649e" transform="translate(-1541.379 -1005.602)"/><path d="m348.793 830.088h-4.03c-.781 0-1.108-.1-1.108 1.51v6.647c0 .731.2 1.51-1.309 1.51h-3.727c-.6 0-1.108.1-1.108-1.006v-34.14c0-1.787.352-1.51 1.41-1.51h11.988c2.367 0 10.376 1.057 10.376 12.089s-4.699 14.9-12.492 14.9zm1.914-20.746h-6.651a.5.5 0 0 0 -.5.5v13.398a.5.5 0 0 0 .5.5h5.34c4.508 0 5.942-2.987 5.942-7.956s-3.184-6.446-4.629-6.446zm-28.714 20.746h-4.022c-.781 0-1.108-.1-1.108 1.51v6.647c0 .731.2 1.51-1.309 1.51h-3.729c-.615 0-1.108.1-1.108-1.006v-34.14c0-1.787.352-1.51 1.41-1.51h11.993c2.369 0 10.378 1.057 10.378 12.089s-4.708 14.9-12.5 14.9zm1.914-20.746h-6.649a.5.5 0 0 0 -.5.5v13.398a.5.5 0 0 0 .5.5h5.34c4.508 0 5.942-2.987 5.942-7.956s-3.192-6.446-4.627-6.446zm-17.453 20.545h-5.122c-1.459 0-1.535-.176-1.811-1.008s-2.037-6.546-2.414-7.653-.629-1.109-1.61-1.109h-10.772c-.981 0-1.229 0-1.612 1.109s-2.141 6.823-2.418 7.653-.352 1.008-1.813 1.008h-5.139c-1.133 0-1.158-.182-.908-.908.656-1.813 9.722-31.12 10.478-32.933.742-1.778 1.293-3.073 6.649-3.12h.3c5.348.047 5.9 1.34 6.639 3.12.754 1.813 9.808 31.119 10.462 32.933.246.725.221.908-.91.908zm-12.173-18.031c-.176-.7-3.278-10.526-3.623-11.581a1.315 1.315 0 0 0 -.41-.711.234.234 0 0 0 -.111-.053h-.082a.233.233 0 0 0 -.111.053 1.312 1.312 0 0 0 -.41.711c-.336 1.057-3.45 10.876-3.627 11.581s-.277 1.109.615 1.109h7.147c.889 0 .789-.4.613-1.1zm-13.494-18.236a102.954 102.954 0 0 0 -7.028 18.467c-2.869 10.348-4.759 20.613-4.759 20.613s3.828-21.35 5.942-30.716 7.153-22.86 11.884-25.278 8.565 1.109 12.8 11.179a157.167 157.167 0 0 1 7.052 22.86c-5.79-21.813-16.893-34.109-25.884-17.111z" fill="#002033" transform="translate(-268.999 -775.969)"/></g></svg>