<svg class="footer_svg_apptunix" xmlns="http://www.w3.org/2000/svg" width="125.009" height="38.728" viewBox="0 0 125.009 38.728"> <path d="M1203.758,463.816a.52.52,0,0,1-.292-.509c0-.1,0-.2,0-.292V442.649a5.91,5.91,0,0,1,.038-.726c.038-.3.152-.38.453-.38l3.172.012c1.573,0,3.142-.021,4.715.013a6.025,6.025,0,0,1,6,4.933,13.567,13.567,0,0,1,.19,3.923,11.835,11.835,0,0,1-.7,3.376,6.055,6.055,0,0,1-5.1,4.006,18.821,18.821,0,0,1-2.867.129h-1.586c-.364,0-.478.1-.516.463-.017.171-.03.346-.03.522,0,1.411-.008,2.825.008,4.236a.6.6,0,0,1-.524.659Zm3.417-14.085v3.981c0,.263.106.376.364.38,1.163,0,2.326.017,3.489,0a3.04,3.04,0,0,0,3.117-2.379,8.618,8.618,0,0,0,.254-3.1,3.876,3.876,0,0,0-.723-2.041,2.8,2.8,0,0,0-2.4-1.235c-1.218.021-2.436,0-3.658,0-.347,0-.44.092-.44.43Z" transform="translate(-1178.334 -425.088)" fill="#fff"></path> <path d="M1329.444,463.839a.5.5,0,0,1-.292-.505V442.509a4.037,4.037,0,0,1,.042-.6c.038-.246.148-.334.4-.338.2,0,.393.013.592.013,2.44,0,4.876-.029,7.316.012a6.014,6.014,0,0,1,6.026,4.95,13.429,13.429,0,0,1,.19,3.86,11.831,11.831,0,0,1-.7,3.418,6.068,6.068,0,0,1-5.1,4.006,17.991,17.991,0,0,1-2.8.129h-1.649c-.368,0-.474.1-.516.459-.013.125-.03.25-.03.376,0,1.411,0,2.825,0,4.236,0,.568-.013.6-.516.81Zm3.417-14.11v4c0,.267.106.384.359.384,1.171,0,2.339.017,3.505-.008a3.033,3.033,0,0,0,3.1-2.37,8.605,8.605,0,0,0,.258-3.08,3.873,3.873,0,0,0-.723-2.061,2.8,2.8,0,0,0-2.4-1.24c-1.209.021-2.423,0-3.633,0-.385,0-.47.083-.47.467C1332.861,447.129,1332.861,448.427,1332.861,449.729Z" transform="translate(-1287.527 -425.111)" fill="#fff"></path> <path d="M1024.5,314.5c.19.05.381.092.567.15a4.049,4.049,0,0,1,1.484.893,10.961,10.961,0,0,1,2.093,2.759,39.629,39.629,0,0,1,2.728,6.114,97.3,97.3,0,0,1,3.015,10.062c0,.013,0,.025-.013.084-.114-.371-.211-.7-.317-1.035a38.378,38.378,0,0,0-3.222-7.7,14.872,14.872,0,0,0-2.909-3.814,8.191,8.191,0,0,0-1.459-1.056,3.979,3.979,0,0,0-4.457.217,8.821,8.821,0,0,0-2.3,2.421,26.4,26.4,0,0,0-2.356,4.515,70.966,70.966,0,0,0-3.764,11.364c-.529,2.166-1.015,4.344-1.522,6.514,0,.021-.013.038-.051.054.063-.355.127-.709.194-1.064.571-2.976,1.129-5.951,1.721-8.922a92.551,92.551,0,0,1,2.106-9.135,45.819,45.819,0,0,1,3.129-7.9,15.386,15.386,0,0,1,1.924-2.934,4.278,4.278,0,0,1,2.444-1.515l.288-.063Z" transform="translate(-1012.012 -314.5)" fill="#fff"></path> <path d="M1044.385,416.457c-.592,0-1.184,0-1.776,0-.542-.008-.66-.1-.82-.6-.482-1.494-.956-2.992-1.438-4.486-.254-.789-.321-.835-1.163-.835h-6.534c-.651,0-.778.083-.977.693q-.742,2.3-1.476,4.607c-.174.538-.279.622-.842.626-1.192.008-2.381.008-3.573,0-.52,0-.567-.079-.41-.568q2.664-8.319,5.328-16.639c.343-1.064.706-2.124,1.057-3.184.017-.054.042-.1.059-.159a2.515,2.515,0,0,1,2.372-1.761,13.4,13.4,0,0,1,3.979.071,2.287,2.287,0,0,1,1.924,1.548c.385,1.11.774,2.22,1.129,3.339q2.633,8.213,5.248,16.426c.055.18.123.355.173.534.08.271.013.376-.279.392-.211.013-.423.008-.634.008h-1.353C1044.385,416.462,1044.385,416.462,1044.385,416.457ZM1035.99,406.2h1.48c.275,0,.55,0,.825,0s.385-.121.334-.4a3.851,3.851,0,0,0-.119-.484q-1.072-3.387-2.148-6.773a1.628,1.628,0,0,0-.156-.363c-.123-.2-.283-.2-.406,0a2.067,2.067,0,0,0-.178.421q-.717,2.228-1.429,4.465c-.271.86-.541,1.724-.8,2.587-.123.413-.009.538.423.538C1034.54,406.2,1035.263,406.2,1035.99,406.2Z" transform="translate(-1023.553 -383.739)" fill="#fff"></path> <path d="M1662.294,450.081c0-2.266-.017-4.536,0-6.8a2.288,2.288,0,0,1,2.237-2.391,5.682,5.682,0,0,1,.651-.038c1.776,0,3.552-.021,5.328.008a11.484,11.484,0,0,1,3.912.664,4.441,4.441,0,0,1,2.33,1.778,3.447,3.447,0,0,1,.529,1.8c.013,2.7.009,5.413.013,8.117v3.735c0,.359-.059.422-.414.422h-3.024c-.355,0-.419-.063-.419-.417,0-3.2.013-6.4,0-9.6a8.558,8.558,0,0,0-.156-1.465,1.489,1.489,0,0,0-1.028-1.169,5.482,5.482,0,0,0-2.009-.309c-.875,0-1.746,0-2.622,0a1.278,1.278,0,0,0-1.455,1.361c-.017.3-.025.6-.025.9v10.141c0,.084,0,.167,0,.25-.013.217-.093.3-.313.309-.308.008-.621,0-.93,0h-2.2c-.342,0-.41-.067-.41-.4v-6.886C1662.286,450.081,1662.29,450.081,1662.294,450.081Z" transform="translate(-1576.94 -424.478)" fill="#fff"></path> <path d="M1844.375,440.81c.647,0,1.3,0,1.945,0a.807.807,0,0,1,.736.4c.6.91,1.2,1.815,1.806,2.721a2.53,2.53,0,0,0,.338.4.43.43,0,0,0,.681-.025,2.994,2.994,0,0,0,.279-.367c.6-.893,1.193-1.786,1.776-2.687a.883.883,0,0,1,.8-.438c1.281.008,2.567,0,3.848,0a1.155,1.155,0,0,1,.169,0c.169.021.216.109.135.259a1.577,1.577,0,0,1-.089.142q-2.341,3.537-4.686,7.065a.442.442,0,0,0,0,.563q2.67,4.006,5.324,8.021a.986.986,0,0,1,.08.121c.03.083.1.2.064.254a.357.357,0,0,1-.258.088c-1.007,0-2.017,0-3.024,0-.317,0-.634,0-.952,0a.773.773,0,0,1-.7-.384q-1.256-1.9-2.52-3.8a2.217,2.217,0,0,0-.33-.4.4.4,0,0,0-.6.021,2.593,2.593,0,0,0-.283.363c-.837,1.26-1.679,2.521-2.508,3.789a.841.841,0,0,1-.77.417c-1.3,0-2.592,0-3.891,0-.072,0-.16.013-.207-.021a.265.265,0,0,1-.093-.2c0-.067.072-.134.114-.2q2.531-3.825,5.062-7.645c.533-.805.444-.739,0-1.411q-2.188-3.305-4.385-6.61c-.026-.042-.055-.079-.08-.121-.127-.209-.076-.313.169-.313C1843.01,440.806,1843.69,440.81,1844.375,440.81Z" transform="translate(-1732.582 -424.443)" fill="#fff"></path> <path d="M1549.211,447.247c0,1.949.021,3.894-.008,5.843a3.616,3.616,0,0,1-1.954,3.2,7.843,7.843,0,0,1-2.787.91,13.856,13.856,0,0,1-2.969.171,10.444,10.444,0,0,1-4.149-.918,3.718,3.718,0,0,1-2.178-2.675,5.823,5.823,0,0,1-.1-1.118q-.013-5.684,0-11.372c0-.334.089-.422.423-.422h3.045c.322,0,.4.079.4.388v9.306c0,.522,0,1.043.042,1.557a1.294,1.294,0,0,0,.994,1.189,8.006,8.006,0,0,0,4.123.038,1.448,1.448,0,0,0,1.239-1.544c.03-.463.03-.931.03-1.394q.006-4.538,0-9.077c0-.417.051-.463.474-.463h2.981c.321,0,.4.075.4.4v5.984Z" transform="translate(-1466.411 -424.499)" fill="#fff"></path> <path d="M1450.564,420.079v-4.695c0-.426-.144-.576-.579-.584s-.875,0-1.311,0c-.309,0-.4-.092-.406-.4v-3.047c0-.3.081-.371.377-.371.423,0,.846.012,1.269-.008a.857.857,0,0,0,.474-.129.583.583,0,0,0,.165-.417c.013-1.2.008-2.408.008-3.61,0-.359.063-.426.427-.426h3.024c.322,0,.414.092.414.409,0,1.26,0,2.517,0,3.777a.323.323,0,0,0,.309.367,1.815,1.815,0,0,0,.334.033c.732,0,1.467,0,2.2,0,.287,0,.381.1.381.371V414.4c0,.3-.1.4-.41.4h-2.114a2.592,2.592,0,0,0-.359.012c-.254.038-.334.134-.334.388v7.637c0,.392.148.543.546.547.753,0,1.51,0,2.263,0,.385,0,.461.075.465.442v2.963c0,.346-.068.409-.423.409-1.184,0-2.368,0-3.552,0a4.466,4.466,0,0,1-1.729-.321,2.141,2.141,0,0,1-1.421-2.041c-.03-1.578,0-3.163-.009-4.749Z" transform="translate(-1391.009 -394.489)" fill="#fff"></path> <path d="M1799.745,449.125v7.825c0,.392-.051.442-.453.442h-2.981c-.359,0-.423-.063-.423-.417V441.287c0-.359.068-.422.436-.422h3.023c.322,0,.4.075.4.392Z" transform="translate(-1693.005 -424.499)" fill="#fff"></path> <path d="M1797.823,397.858h-1.565c-.266,0-.359-.083-.359-.346q-.006-1.521,0-3.046c0-.267.089-.351.359-.351h3.151c.258,0,.347.088.347.338q.006,1.534,0,3.067c0,.25-.093.338-.343.338C1798.88,397.863,1798.352,397.858,1797.823,397.858Z" transform="translate(-1693.011 -383.803)" fill="#fff"></path> </svg>