<svg id="clutch-co-vector-logo" xmlns="http://www.w3.org/2000/svg" width="109.284" height="31.037" viewBox="0 0 109.284 31.037"> <path id="Path_1466246" data-name="Path 1466246" d="M177,235.9h5.027v31.036H177Z" transform="translate(-148.586 -235.9)" fill="#fff"></path> <path id="Path_1466247" data-name="Path 1466247" d="M238.77,302.247c0,4.808-3.934,5.246-5.246,5.246-3.06,0-3.5-2.841-3.5-4.371V291.1H225v11.8c0,2.841.874,5.464,2.623,6.994a7.912,7.912,0,0,0,5.9,2.186,7.632,7.632,0,0,0,5.246-1.749v1.749H243.8V291.1H238.77S238.77,302.247,238.77,302.247Z" transform="translate(-187.843 -281.046)" fill="#fff"></path> <path id="Path_1466248" data-name="Path 1466248" d="M342.943,249.1h-5.027v7.65H334.2v4.808h3.716v16.174h5.027V261.558h3.716V256.75h-3.716Z" transform="translate(-277.154 -246.696)" fill="#fff"></path> <path id="Path_1466249" data-name="Path 1466249" d="M422.263,303.781a6.9,6.9,0,0,1-4.153,1.53,5.8,5.8,0,0,1-5.9-6.12,5.622,5.622,0,0,1,5.9-5.9,5.769,5.769,0,0,1,4.153,1.53l.656.656,3.5-3.279-.874-.656a11.206,11.206,0,0,0-7.431-2.841,10.71,10.71,0,1,0,0,21.42,11.207,11.207,0,0,0,7.431-2.841l.874-.656-3.5-3.5Z" transform="translate(-337.021 -279.083)" fill="#fff"></path> <path id="Path_1466250" data-name="Path 1466250" d="M540.3,247.7a6.937,6.937,0,0,0-5.464-2.186,6.574,6.574,0,0,0-4.808,1.749V235.9H525v31.036h5.027V255.352c0-4.809,3.279-5.246,4.59-5.246,3.06,0,2.841,2.841,2.841,4.371v12.24h5.027V254.7C542.485,251.855,541.83,249.233,540.3,247.7Z" transform="translate(-433.201 -235.9)" fill="#fff"></path> <ellipse id="Ellipse_50078" data-name="Ellipse 50078" cx="3.497" cy="3.497" rx="3.497" ry="3.497" transform="translate(77.373 16.83)" fill="#ef4335"></ellipse> <path id="Path_1466251" data-name="Path 1466251" d="M42.42,264.17a10.249,10.249,0,0,1-7.213,2.841c-5.464,0-9.4-4.371-9.4-10.273s3.934-10.273,9.617-10.273a10.285,10.285,0,0,1,7.213,3.06l.656.656,3.279-3.279-.656-.656a14.72,14.72,0,0,0-10.491-4.371C27.12,241.658,21,248.215,21,256.739s6.12,15.081,14.207,15.081A14.355,14.355,0,0,0,45.7,267.448l.656-.656-3.279-3.279Z" transform="translate(-21 -240.783)" fill="#fff"></path> </svg>