<svg viewBox="0 0 58 58" style="enable-background:new 0 0 58 58" class="css-ph9i04 e5ibypu0"><rect style="fill-rule:evenodd;clip-rule:evenodd;fill:#F2F2F2" width="58" height="58"></rect><path style="fill-rule:evenodd;clip-rule:evenodd;fill:#424D57" d="M40,38c7.3,3.8,11,8.4,11,13.9v6c0,0.2-0.1,0.3-0.2,0.4C47.9,62,6.1,62,6.1,58l0-0.1l0-0.1 v-6c0-5.5,3.7-10.1,11-13.9c1.2-0.7,2-0.2,2-0.2c2.5,2.3,5.8,3.7,9.5,3.7l-0.1,0l0.3,0c3.5-0.1,6.7-1.5,9.1-3.7 C38,37.8,38.8,37.3,40,38z M28.5,17C34.3,17,39,21.7,39,27.5S34.3,38,28.5,38S18,33.3,18,27.5S22.7,17,28.5,17z"></path></svg>